<svg xmlns="http://www.w3.org/2000/svg" width="36" height="23" viewBox="0 0 36 23">
    <g fill="none" fill-rule="evenodd">
        <g fill="#1753C9" fill-rule="nonzero" stroke="#1753C9" stroke-width=".96">
            <g>
                <g>
                    <g>
                        <path d="M29.06 9.152c.983-.674 1.635-1.795 1.635-3.06 0-2.067-1.715-3.74-3.836-3.74-2.121 0-3.836 1.673-3.836 3.74 0 1.265.645 2.386 1.635 3.06-.844.285-1.615.726-2.267 1.297-.897-.746-1.954-1.316-3.111-1.653 1.403-.83 2.347-2.34 2.347-4.058C21.627 2.12 19.453 0 16.767 0c-2.686 0-4.86 2.126-4.86 4.738 0 1.718.937 3.228 2.347 4.058-1.144.337-2.188.9-3.078 1.633-.652-.557-1.41-.992-2.24-1.27.983-.674 1.635-1.796 1.635-3.06 0-2.067-1.716-3.74-3.836-3.74-2.121 0-3.836 1.673-3.836 3.74 0 1.264.644 2.386 1.635 3.06C1.894 10.047 0 12.49 0 15.362v.428c0 .013.013.026.027.026h8.13c-.046.356-.073.725-.073 1.095v.44c0 1.906 1.582 3.449 3.537 3.449h10.305c1.954 0 3.537-1.543 3.537-3.448v-.441c0-.37-.027-.739-.074-1.095h8.184c.014 0 .027-.013.027-.026v-.428c-.013-2.878-1.901-5.322-4.54-6.21zm-4.974-3.066c0-1.49 1.244-2.703 2.773-2.703 1.529 0 2.772 1.213 2.772 2.703 0 1.472-1.217 2.67-2.72 2.703h-.105c-1.51-.026-2.72-1.225-2.72-2.703zM12.957 4.738c0-2.042 1.702-3.7 3.796-3.7 2.095 0 3.797 1.658 3.797 3.7 0 1.97-1.59 3.585-3.577 3.695h-.439c-1.988-.11-3.577-1.724-3.577-3.695zM3.942 6.086c0-1.49 1.244-2.703 2.773-2.703 1.529 0 2.772 1.213 2.772 2.703 0 1.472-1.217 2.67-2.72 2.703h-.106C5.16 8.763 3.942 7.564 3.942 6.086zm4.401 8.686H1.077c.3-2.761 2.693-4.926 5.598-4.946h.08c1.382.007 2.646.506 3.623 1.316-.958 1.011-1.669 2.256-2.035 3.63zm16.043 2.58c0 1.328-1.11 2.41-2.474 2.41H11.608c-1.363 0-2.473-1.082-2.473-2.41v-.441c0-4.025 3.297-7.318 7.4-7.435.072.007.152.007.225.007.073 0 .153 0 .226-.007 4.102.117 7.4 3.41 7.4 7.435v.44h0zm.79-2.58c-.365-1.368-1.063-2.593-2.014-3.604.984-.83 2.26-1.329 3.657-1.342h.08c2.905.02 5.298 2.185 5.597 4.946h-7.32z" transform="translate(-1159 -224) translate(1140 120) translate(20 92) translate(0 13)"/>
                    </g>
                </g>
            </g>
        </g>
    </g>
</svg>
