<svg xmlns="http://www.w3.org/2000/svg" width="32" height="26" viewBox="0 0 32 26">
    <g fill="none" fill-rule="evenodd">
        <g fill="#1753C9" fill-rule="nonzero">
            <g>
                <g>
                    <g>
                        <path d="M29.6 13.46c.128-.428.193-.875.193-1.325 0-2.567-2.088-4.656-4.655-4.656-.813 0-1.608.214-2.307.613-1.736-1.467-4.122-1.933-6.284-1.205-.176-.621-.457-1.199-.823-1.712l1.374-1.373c.363-.364.363-.953 0-1.317-.364-.363-.954-.363-1.317 0L14.408 3.86c-.673-.48-1.457-.814-2.304-.957V.962c0-.514-.417-.931-.932-.931-.514 0-.93.417-.93.931v1.94c-.848.143-1.632.477-2.305.957L6.564 2.485c-.364-.363-.953-.363-1.317 0-.363.364-.363.953 0 1.317l1.374 1.373c-.48.673-.814 1.457-.957 2.304h-1.94c-.514 0-.93.417-.93.931 0 .515.416.931.93.931h1.94c.145.881.498 1.704 1.03 2.412-2.373 1.044-3.95 3.423-3.9 6.085C1.19 18.252 0 19.712 0 21.445c0 2.053 1.67 3.724 3.724 3.724h14.897c2.424 0 4.215-2.294 3.605-4.655h5.705c2.054 0 3.724-1.67 3.724-3.724 0-1.415-.8-2.7-2.055-3.33zM7.448 8.41c0-2.053 1.671-3.724 3.724-3.724 1.832 0 3.358 1.33 3.667 3.075-1.35.965-2.318 2.433-2.629 4.127-1.038-.516-2.227-.768-3.472-.66-.822-.708-1.29-1.723-1.29-2.818zm11.173 14.897H3.724c-1.027 0-1.862-.835-1.862-1.862 0-1.027.835-1.862 1.862-1.862h1.178l-.182-1.085c-.48-2.863 1.736-5.432 4.59-5.432 1.191 0 2.34.462 3.2 1.277.172.162.126.117.835.889l.682-.577c.503-.424 1.142-.658 1.8-.658 1.54 0 2.794 1.253 2.794 2.793 0 .5-.134.99-.388 1.419L17.53 19.4c1.429.215 1.381.2 1.521.233.824.195 1.433.946 1.433 1.812 0 1.027-.835 1.862-1.862 1.862zm9.31-4.655h-6.848c-.244-.215-.524-.401-.793-.536.115-.388.176-.782.19-1.157.109-2.997-2.622-5.331-5.576-4.731-.311.063-.622.16-.905.282.275-2.306 2.243-4.1 4.622-4.1 1.3 0 2.55.55 3.43 1.509l.604.658.682-.577c.503-.425 1.143-.659 1.801-.659 1.54 0 2.793 1.253 2.793 2.794 0 .5-.134.99-.387 1.418l-.705 1.192 1.37.203c.903.135 1.584.926 1.584 1.842 0 1.027-.835 1.862-1.862 1.862z" transform="translate(-1160 -145) translate(1140 120) translate(20 15) translate(0 10)"/>
                    </g>
                </g>
            </g>
        </g>
    </g>
</svg>
