<svg xmlns="http://www.w3.org/2000/svg" width="32" height="32" viewBox="0 0 32 32">
    <g fill="none" fill-rule="evenodd">
        <g fill="#2DC8FF">
            <g>
                <g>
                    <g>
                        <g>
                            <g>
                                <g>
                                    <path d="M17.277 0c1.321 0 2.446.953 2.605 2.206l.343 2.337.112.058.405.229.122.076 2.297-.899c1.186-.426 2.456-.007 3.108.949l.114.185 2.619 4.424c.621 1.114.352 2.49-.668 3.277l-1.909 1.456.01.368-.01.365 1.915 1.463c.948.734 1.249 1.989.759 3.077l-.109.215-2.595 4.387c-.455.814-1.339 1.322-2.293 1.322-.33 0-.652-.06-.973-.182l-2.268-.89-.138.087-.4.227-.097.049-.34 2.324c-.152 1.198-1.16 2.11-2.377 2.214l-.23.01h-5.216c-1.323 0-2.447-.955-2.605-2.208l-.344-2.339-.112-.057c-.136-.073-.27-.15-.404-.229l-.123-.077-2.297.902c-1.189.426-2.453.006-3.105-.95l-.115-.185L.34 19.77c-.622-1.113-.354-2.49.666-3.279l1.907-1.457-.007-.366c0-.118.003-.238.007-.366L1.001 12.84c-.969-.75-1.268-2.054-.749-3.114L.36 9.53l2.587-4.368c.62-1.11 2.037-1.606 3.266-1.142l2.267.89.141-.087c.134-.08.267-.155.401-.228l.093-.048.342-2.324C9.608 1.025 10.614.113 11.83.01l.23-.01zm-.176 2.767h-4.863l-.534 3.643-.71.312c-.505.222-1.01.508-1.529.87l-.63.438-3.502-1.373-2.436 4.117 2.976 2.273-.081.76c-.035.33-.051.607-.051.86 0 .252.016.53.051.86l.08.761-2.976 2.27 2.437 4.117 3.504-1.373.633.446c.49.344 1 .634 1.525.865l.71.312.534 3.64h4.863l.535-3.639.708-.313c.509-.224 1.012-.51 1.53-.87l.632-.44 3.502 1.372 2.433-4.117-2.976-2.272.082-.762c.034-.31.052-.589.052-.858 0-.276-.018-.56-.051-.853l-.085-.766 2.98-2.275-2.438-4.116-3.502 1.374-.633-.446c-.49-.345-1-.634-1.524-.864l-.711-.312-.535-3.64zm1.024 8.412c.642-.608 1.681-.608 2.322 0 .641.607.641 1.592 0 2.2l-5.906 5.594c-.32.304-.74.456-1.16.456-.421 0-.841-.152-1.162-.456l-3.33-3.154c-.64-.607-.64-1.592 0-2.2.642-.607 1.682-.607 2.324 0l2.167 2.054z" transform="translate(-1343 -524) translate(40 489) translate(920) translate(355) translate(28 35) translate(1 1) translate(.333 .333)"/>
                                </g>
                            </g>
                        </g>
                    </g>
                </g>
            </g>
        </g>
    </g>
</svg>
