<svg xmlns="http://www.w3.org/2000/svg" width="32" height="32" viewBox="0 0 32 32">
    <g fill="none" fill-rule="evenodd">
        <g>
            <g>
                <g>
                    <g>
                        <g>
                            <g>
                                <path fill="#00BAFC" d="M14 .667c7.364 0 13.333 5.97 13.333 13.333v12c0 .736-.597 1.333-1.333 1.333H14C6.636 27.333.667 21.363.667 14 .667 6.636 6.637.667 14 .667zm0 2.666C8.109 3.333 3.333 8.11 3.333 14S8.11 24.667 14 24.667h10.667V14C24.667 8.109 19.89 3.333 14 3.333zm0 8c.736 0 1.333.584 1.333 1.338v6.658c0 .686-.51 1.251-1.177 1.329l-.156.009c-.736 0-1.333-.584-1.333-1.338v-6.658c0-.686.51-1.251 1.177-1.329l.156-.009zm0-4c.684 0 1.247.51 1.324 1.177l.01.157c0 .683-.511 1.247-1.178 1.324L14 10c-.736 0-1.333-.592-1.333-1.333 0-.684.51-1.248 1.177-1.325L14 7.333z" transform="translate(-883 -524) translate(40 489) translate(460) translate(355) translate(28 35) translate(2 2)"/>
                            </g>
                        </g>
                    </g>
                </g>
            </g>
        </g>
    </g>
</svg>
