<svg xmlns="http://www.w3.org/2000/svg" width="32" height="32" viewBox="0 0 32 32">
    <g fill="none" fill-rule="evenodd">
        <g fill="#2DC8FF">
            <g>
                <g>
                    <g>
                        <path d="M28.089 3.125H25.6V.937C25.6.42 25.122 0 24.533 0H7.467C6.877 0 6.4.42 6.4.938v2.187H3.911C1.755 3.125 0 4.667 0 6.563v3.185c0 2.226 1.599 4.232 3.979 4.993l3.21 1.026c.405.13.905.616 1.01.983.135.478-.026.991-.422 1.34-.485.425-1.13.66-1.815.66h-.629c-.589 0-1.066.42-1.066.938 0 .517.477.937 1.066.937h.629c1.255 0 2.435-.43 3.323-1.21.24-.21.441-.447.604-.7.842.818 1.819 1.538 2.911 2.132v5.528h-1.778c-.283 0-.554.099-.754.275l-2.133 1.875c-.2.175-.313.414-.313.663v1.875c0 .517.478.937 1.067.937H23.11c.59 0 1.067-.42 1.067-.938v-1.875c0-.248-.113-.487-.313-.662l-2.133-1.875c-.2-.176-.471-.275-.754-.275H19.2v-5.528c1.092-.594 2.07-1.314 2.91-2.133.164.254.366.49.605.701.888.78 2.068 1.21 3.323 1.21h.629c.589 0 1.066-.42 1.066-.938 0-.517-.477-.937-1.066-.937h-.629c-.685 0-1.33-.235-1.815-.66-.396-.349-.557-.862-.421-1.34.104-.367.604-.854 1.008-.983l3.211-1.026C30.401 13.98 32 11.974 32 9.748V6.563c0-1.896-1.755-3.438-3.911-3.438zM4.708 12.979c-1.54-.492-2.575-1.79-2.575-3.23V6.561C2.133 5.702 2.931 5 3.911 5H6.4v5.753c0 .99.142 1.962.41 2.898l-2.102-.672zM20.536 28.25l1.508 1.326v.549H9.956v-.55l1.508-1.325h9.072zm-5.603-1.875V21.25h2.134v5.125h-2.134zm8.534-15.622c0 3.55-2.146 6.83-5.617 8.622h-3.7c-3.471-1.791-5.617-5.073-5.617-8.622V10h14.934v.753zm0-2.628H8.533V6.25h14.934v1.875zm0-3.75H8.533v-2.5h14.934v2.5zm6.4 5.373c0 1.44-1.035 2.739-2.575 3.23l-2.102.673c.268-.936.41-1.908.41-2.898V5h2.489c.98 0 1.778.7 1.778 1.563v3.185z" transform="translate(-423 -524) translate(40 489) translate(355) translate(28 35)"/>
                    </g>
                </g>
            </g>
        </g>
    </g>
</svg>
