<svg xmlns="http://www.w3.org/2000/svg" width="22" height="23" viewBox="0 0 22 23">
    <g fill="none" fill-rule="evenodd">
        <g fill="#1753C9" fill-rule="nonzero">
            <g>
                <g>
                    <g>
                        <g>
                            <path d="M7.333 0c4.05 0 7.334 3.283 7.334 7.333 0 1.695-.575 3.255-1.54 4.497l3.105 3.105c.357.358.357.939 0 1.297-.33.33-.85.355-1.21.076l-.087-.076-3.105-3.105c-1.242.965-2.802 1.54-4.497 1.54C3.283 14.667 0 11.383 0 7.333S3.283 0 7.333 0zm0 1.833c-3.037 0-5.5 2.463-5.5 5.5 0 3.038 2.463 5.5 5.5 5.5 3.038 0 5.5-2.462 5.5-5.5 0-3.037-2.462-5.5-5.5-5.5z" transform="translate(-515 -38) translate(500 25) translate(15 14) translate(2.75 2.75)"/>
                        </g>
                    </g>
                </g>
            </g>
        </g>
    </g>
</svg>
