<svg xmlns="http://www.w3.org/2000/svg" width="32" height="32" viewBox="0 0 32 32">
    <g fill="none" fill-rule="evenodd">
        <g fill="#2DC8FF">
            <g>
                <g>
                    <g>
                        <g>
                            <g>
                                <g>
                                    <path d="M26.281 0c.183 0 .336.128.375.3l.01.09v21.415c0 .185-.126.339-.296.38l-.089.01h-9.176l4.396 4.443c.525.53.598 1.347.218 1.957l-.105.148-.113.128c-.57.575-1.47.614-2.083.115l-.127-.115-4.396-4.444v3.327c0 .763-.535 1.4-1.247 1.547l-.155.024-.16.008c-.809 0-1.474-.621-1.554-1.417l-.008-.162-.001-3.326-4.395 4.443c-.525.531-1.332.605-1.936.22l-.146-.105-.127-.115c-.57-.576-.607-1.485-.114-2.105l.114-.128 4.394-4.443H.385c-.152 0-.283-.09-.346-.218l-.029-.082-.01-.09V.39C0 .205.127.051.297.01L.385 0h25.896zm-2.74 3.158H3.124v15.878H23.54V3.158zm-4.322 3.18v7.139h1.177c.65 0 1.177.533 1.177 1.19 0 .656-.527 1.19-1.177 1.19H6.27c-.65 0-1.177-.534-1.177-1.19 0-.657.527-1.19 1.177-1.19h1.177V7.528h2.354v5.949h2.354v-3.57h2.354v3.57h2.355V6.338h2.354z" transform="translate(-883 -646) translate(40 489) translate(460 122) translate(355) translate(28 35) translate(2 1) translate(.667 .333)"/>
                                </g>
                            </g>
                        </g>
                    </g>
                </g>
            </g>
        </g>
    </g>
</svg>
