<svg xmlns="http://www.w3.org/2000/svg" width="32" height="32" viewBox="0 0 32 32">
    <g fill="none" fill-rule="evenodd">
        <g fill="#2DC8FF">
            <g>
                <g>
                    <g>
                        <g>
                            <g>
                                <g>
                                    <path d="M4 18.667c2.21 0 4 1.79 4 4 0 2.209-1.79 4-4 4s-4-1.791-4-4c0-2.21 1.79-4 4-4zm21.333 2.666c.737 0 1.334.597 1.334 1.334 0 .683-.515 1.247-1.178 1.324l-.156.009H12c-.736 0-1.333-.597-1.333-1.333 0-.684.514-1.248 1.178-1.325l.155-.009h13.333zM4 21.333c-.736 0-1.333.597-1.333 1.334C2.667 23.403 3.264 24 4 24s1.333-.597 1.333-1.333c0-.737-.597-1.334-1.333-1.334zm0-12c2.21 0 4 1.791 4 4 0 2.21-1.79 4-4 4s-4-1.79-4-4c0-2.209 1.79-4 4-4zM25.333 12c.737 0 1.334.597 1.334 1.333 0 .684-.515 1.248-1.178 1.325l-.156.009H12c-.736 0-1.333-.597-1.333-1.334 0-.683.514-1.247 1.178-1.324L12 12h13.333zM4 12c-.736 0-1.333.597-1.333 1.333 0 .737.597 1.334 1.333 1.334s1.333-.597 1.333-1.334C5.333 12.597 4.736 12 4 12zM4 0c2.21 0 4 1.79 4 4S6.21 8 4 8 0 6.21 0 4s1.79-4 4-4zm0 2.667c-.736 0-1.333.597-1.333 1.333S3.264 5.333 4 5.333 5.333 4.736 5.333 4 4.736 2.667 4 2.667zm21.333 0c.737 0 1.334.597 1.334 1.333 0 .684-.515 1.247-1.178 1.324l-.156.01H12c-.736 0-1.333-.598-1.333-1.334 0-.684.514-1.247 1.178-1.324l.155-.01h13.333z" transform="translate(-423 -646) translate(40 489) translate(0 122) translate(355) translate(28 35) translate(2 2) translate(.667 .667)"/>
                                </g>
                            </g>
                        </g>
                    </g>
                </g>
            </g>
        </g>
    </g>
</svg>
