<svg xmlns="http://www.w3.org/2000/svg" width="22" height="22" viewBox="0 0 22 22">
    <g fill="none" fill-rule="evenodd">
        <g fill="#1753C9" fill-rule="nonzero">
            <g>
                <g>
                    <g>
                        <g>
                            <g>
                                <path d="M1.4 9.467l.086.005c.364.042.647.352.647.728v2.63L5.28 9.681l.07-.06c.287-.224.703-.204.968.06.286.287.286.751 0 1.038l-3.15 3.148H5.8l.086.005c.364.042.647.352.647.728 0 .405-.328.733-.733.733H1.375l-.031-.002-.05-.005-.019-.003-.036-.007-.06-.016-.041-.015c-.017-.006-.034-.013-.05-.021l-.041-.021-.05-.03-.045-.033-.07-.061-.017-.017c-.016-.017-.031-.035-.045-.053-.01-.012-.018-.024-.026-.036-.012-.017-.023-.034-.032-.052-.01-.016-.018-.032-.026-.049l-.017-.04-.016-.043-.016-.056-.01-.045c-.007-.041-.01-.084-.01-.128l.001.047-.001-.03V10.2l.005-.086c.042-.364.352-.647.728-.647zm13.647 5.713l-.044.033-.05.03-.041.021c-.016.008-.033.015-.05.021l-.042.015-.059.016-.036.007-.04.005-.029.003-.03.002H10.2c-.405 0-.733-.328-.733-.733 0-.376.283-.686.647-.728l.086-.005h2.63L9.681 10.72c-.286-.287-.286-.751 0-1.038.265-.264.68-.284.968-.06l.07.06 3.148 3.15V10.2c0-.376.283-.686.647-.728l.086-.005c.376 0 .686.283.728.647l.005.086v4.417l-.001.03-.002.018-.008.063-.01.045-.015.056-.016.043-.017.04-.026.05c-.01.017-.02.034-.032.05l-.026.037-.045.053-.016.017-.04.037-.007.004-.01.01-.011.007h-.001l-.003.003zM14.625.667l.031.002.03.003.039.005.036.007.06.016.041.015c.017.006.034.013.05.021l.041.021.05.03.05.037.066.057.016.017c.016.017.031.035.045.053l.026.036c.012.017.023.034.032.052l.026.049.017.04.008.021.008.022.016.056.01.045.006.058v-.007.012l.003.018.001.03V5.8l-.005.086c-.042.364-.352.647-.728.647l-.086-.005c-.364-.042-.647-.352-.647-.728V3.17L10.72 6.319l-.07.06c-.287.224-.703.204-.968-.06-.286-.287-.286-.751 0-1.038l3.15-3.148H10.2l-.086-.005c-.364-.042-.647-.352-.647-.728 0-.405.328-.733.733-.733zM5.8.667c.405 0 .733.328.733.733 0 .376-.283.686-.647.728l-.086.005H3.17L6.319 5.28c.286.287.286.751 0 1.038-.265.264-.68.284-.968.06l-.07-.06-3.148-3.15V5.8c0 .376-.283.686-.647.728l-.086.005c-.376 0-.686-.283-.728-.647L.667 5.8V1.353v.03l.003-.048-.001.012v-.012l.009-.063.01-.045c.004-.019.01-.038.015-.056l.016-.043.017-.04.026-.05.032-.05L.82.95.865.898.881.881.946.825.997.787l.05-.03.041-.021c.016-.008.033-.015.05-.021L1.18.7l.059-.016.036-.007.04-.005.029-.003.03-.002H5.8z" transform="translate(-1326 -804) translate(40 753) translate(1145 40) translate(55) translate(86 11) translate(3 3)"/>
                            </g>
                        </g>
                    </g>
                </g>
            </g>
        </g>
    </g>
</svg>
